<?xml version="1.0" encoding="utf-8"?>
<!-- Generator: Adobe Illustrator 16.0.0, SVG Export Plug-In . SVG Version: 6.00 Build 0)  -->
<!DOCTYPE svg PUBLIC "-//W3C//DTD SVG 1.1//EN" "http://www.w3.org/Graphics/SVG/1.1/DTD/svg11.dtd">
<svg version="1.1" id="Calque_3" xmlns="http://www.w3.org/2000/svg" xmlns:xlink="http://www.w3.org/1999/xlink" x="0px" y="0px"
	 width="595.28px" height="841.89px" viewBox="0 0 595.28 841.89" enable-background="new 0 0 595.28 841.89" xml:space="preserve">
<path fill="#4D4D4E" d="M113.075,112.471c-0.306-0.348-0.625-0.685-0.945-1.017c-0.105-0.108-0.21-0.215-0.316-0.322
	c-0.226-0.226-0.456-0.448-0.688-0.667c-0.122-0.115-0.242-0.231-0.366-0.344c-0.296-0.271-0.599-0.535-0.905-0.793
	c-0.202-0.17-0.409-0.335-0.615-0.5c-0.125-0.1-0.25-0.2-0.377-0.298c-0.24-0.186-0.481-0.37-0.726-0.548
	c-0.029-0.021-0.058-0.041-0.086-0.062c-0.579-0.418-1.17-0.817-1.777-1.197c-0.002-0.001-0.005-0.003-0.009-0.006
	c-0.182,0.121-0.369,0.236-0.553,0.354c1.427,1.504,2.728,3.179,3.877,5.019c4.561,7.299,6.243,16.255,4.735,25.22
	c-1.36,8.09-5.267,15.474-11.001,20.792c-1.083,1.005-2.22,1.924-3.398,2.755c10.574-4.872,18.456-14.421,20.024-25.512
	C121.132,126.962,118.692,118.839,113.075,112.471z"/>
<path fill="#4D4D4E" d="M86.614,113.381c0.253,0.402,0.492,0.813,0.722,1.229c0.047,0.084,0.094,0.169,0.14,0.255
	c0.229,0.425,0.451,0.855,0.655,1.294c3.216,6.914,2.999,14.716-0.612,21.971c-4.194,8.428-12.446,14.876-22.189,17.75
	c3.71,3.771,8.423,6.394,13.795,7.297c1.348,0.227,2.721,0.342,4.081,0.342c13.607,0,25.796-11.468,28.354-26.675
	c1.394-8.288-0.151-16.552-4.349-23.27c-0.229-0.367-0.468-0.724-0.709-1.076c-0.079-0.115-0.159-0.228-0.239-0.341
	c-0.171-0.241-0.344-0.478-0.521-0.711c-0.092-0.123-0.183-0.247-0.277-0.368c-0.225-0.289-0.455-0.572-0.689-0.85
	c-0.154-0.183-0.312-0.36-0.47-0.538c-0.096-0.108-0.191-0.215-0.289-0.322c-0.184-0.201-0.369-0.399-0.557-0.593
	c-0.022-0.023-0.045-0.044-0.066-0.067c-0.058-0.059-0.117-0.115-0.175-0.173c-4.854,2.61-10.502,4.332-16.606,4.844
	C86.613,113.38,86.614,113.38,86.614,113.381z"/>
<path fill="#4D4D4E" d="M84.191,116.532c-0.258-0.633-0.54-1.25-0.844-1.85c-5.801-0.483-11.125-2.667-15.474-6.048
	c-0.375-0.292-0.742-0.594-1.103-0.904c-1.59-1.365-3.036-2.894-4.302-4.567c-0.744,0.173-1.472,0.402-2.179,0.685
	c-0.001,0-0.002,0.001-0.003,0.001c-0.343,0.137-0.68,0.288-1.012,0.45c-0.017,0.008-0.033,0.016-0.05,0.024
	c-0.333,0.164-0.662,0.341-0.984,0.53c-0.014,0.008-0.027,0.017-0.041,0.025c-0.291,0.171-0.575,0.355-0.856,0.547
	c-0.051,0.035-0.102,0.069-0.152,0.104c-0.292,0.204-0.579,0.418-0.859,0.644c-0.021,0.017-0.041,0.035-0.062,0.052
	c-0.251,0.205-0.496,0.42-0.737,0.642c-0.065,0.061-0.131,0.122-0.196,0.184c-0.257,0.245-0.51,0.496-0.754,0.76
	c-3.39,3.673-5.014,8.717-4.572,14.201c0.697,8.661-3.978,16.478-7.291,19.618c-1.012,0.959-2.029,2.004-2.41,2.851
	c-0.125,0.28-0.182,0.538-0.146,0.764c0.278,1.725,5.369,4.33,10.312,6.652c2.834,1.331,5.861,2.03,9,2.095
	c0.159,0.003,0.318,0.013,0.478,0.013c0.38,0,0.759-0.013,1.136-0.031c0.537-0.026,1.071-0.067,1.603-0.13
	c8.718-1.026,16.647-6.882,20.695-15.501c2.991-6.369,3.525-13.42,1.503-19.855c-0.105-0.336-0.218-0.667-0.336-0.996
	c-0.053-0.147-0.112-0.292-0.168-0.438c-0.052-0.135-0.102-0.271-0.156-0.406C84.22,116.609,84.207,116.57,84.191,116.532z"/>
<path d="M67.944,102.555c-0.054-0.019-0.106-0.04-0.16-0.06"/>
<path fill="#FFFFFF" d="M85.861,109.26c0.033-0.029,0.06-0.058,0.093-0.087c-0.061,0.002-0.121,0.002-0.181,0.003
	C85.804,109.204,85.829,109.232,85.861,109.26z"/>
<path fill="#FFFFFF" stroke="#000000" stroke-width="3" stroke-miterlimit="10" d="M175.455,113.818"/>
<text transform="matrix(1 0 0 1 667.2725 687.4551)" font-family="'CenturyGothic-Bold'" font-size="72">VIKENIMA</text>
<text transform="matrix(1 0 0 1 668.1816 926.5459)" font-family="'HarlowSolid'" font-size="72">Vikenima</text>
<text transform="matrix(1 0 0 1 -290.9092 59.272)" font-family="'HarlowSolid'" font-size="72">Vikenima</text>
<text transform="matrix(1 0 0 1 -412.2729 892.9365)" font-family="'Kokila'" font-size="72">VIKENIMA</text>
<text transform="matrix(1 0 0 1 672 763.9355)" font-family="'Mangal-Bold'" font-size="72">VIKENIMA</text>
<text transform="matrix(1 0 0 1 675.0898 838.5811)" font-family="'MathematicalPi-Six'" font-size="72">VIKENIMA</text>
<text transform="matrix(1 0 0 1 -438.0918 971.8711)" font-family="'Microsoft-Yi-Baiti'" font-size="72">VIKENIMA</text>
<text transform="matrix(1 0 0 1 -341.9092 731.0068)" font-family="'MoolBoran'" font-size="72">VIKENIMA</text>
<text transform="matrix(1 0 0 1 -400.1812 581.0986)" font-family="'MVBoli'" font-size="72">VIKENIMA</text>
<text transform="matrix(1 0 0 1 -456.9082 376.6445)" font-family="'PoiretOne-Regular'" font-size="72">VIKENIMA</text>
<text transform="matrix(1 0 0 1 -459.7266 462.8262)" font-family="'PoplarStd'" font-size="72">VIKENIMA</text>
<text transform="matrix(1 0 0 1 -395.0903 120.0073)" font-family="'SegoePrint'" font-size="72">VIKENIMA</text>
<text transform="matrix(1 0 0 1 -351.5449 195.7344)" font-family="'TektonPro-Bold'" font-size="72">VIKENIMA</text>
<text transform="matrix(1 0 0 1 -358.1812 273.2803)" font-family="'TrebuchetMS'" font-size="72">VIKENIMA</text>
<text transform="matrix(1 0 0 1 -459.6357 296.8262)" font-family="'Tunga'" font-size="72">VIKENIMA</text>
<text transform="matrix(1 0 0 1 677 610.7363)" font-family="'Arciform'" font-size="72">VIKENIMA</text>
<text transform="matrix(1 0 0 1 669.8184 441.6455)" font-family="'Arciform'" font-size="72">VIKENIMA</text>
<text transform="matrix(1 0 0 1 134.7236 153.5117)" fill="#4D4D4E" font-family="'koliko-Regular'" font-size="100.8428">VIKENIMA</text>
<path fill="#4D4D4E" d="M113.541,245.997c0.001-0.002,0.002-0.005,0.003-0.007"/>
<path fill="#4D4D4E" d="M113.544,245.99c2.452-5.607,8.048-9.536,14.548-9.536c6.34,0,11.822,3.739,14.363,9.127
	c2.163-6.199,8.064-10.66,14.989-10.66c5.96,0,11.164,3.305,13.875,8.179c0.198,0.354,0.38,0.717,0.551,1.088
	c0.927,2.014,1.447,4.252,1.447,6.61c0,0.654-0.044,1.298-0.122,1.931c0.406-1.912,0.622-3.89,0.622-5.915
	c0-16.371-13.932-29.69-31.054-29.69c-17.123,0-31.054,13.319-31.054,29.69c0,1.824,0.182,3.607,0.513,5.341
	c0.024-2.187,0.493-4.268,1.318-6.16"/>
<path fill="#4D4D4E" d="M156.513,260.011c0.173,0.022,0.349,0.041,0.537,0.054l0.329,0.023l5.055-8.283l2.878,4.776
	c0.1-0.124,0.202-0.252,0.305-0.395l0.183-0.25l-5.014-8.324l5.891,0.015c-0.108-0.261-0.228-0.515-0.358-0.764l-9.993,0.015
	l2.916-4.947c-0.257-0.038-0.516-0.067-0.779-0.085l-5.086,8.328l-3.011-4.978c-0.197,0.231-0.38,0.472-0.554,0.721l5.115,8.456
	l-6.003-0.001c0.111,0.265,0.237,0.523,0.373,0.776l10.157-0.014L156.513,260.011z"/>
<path fill="#4D4D4E" d="M122.915,267.338c-1.317-0.457-2.556-1.082-3.691-1.851c-0.529-0.358-1.038-0.745-1.519-1.164
	c0.313,0.408,0.638,0.807,0.971,1.199c1.225,1.439,2.587,2.766,4.067,3.964c0.417,0.337,0.842,0.664,1.276,0.98
	c4.143,3.01,9.096,5.047,14.487,5.756c1.258,0.166,2.539,0.26,3.839,0.276c0.139,0.001,0.277,0.006,0.417,0.006
	c6.431,0,12.408-1.881,17.368-5.095c4.862-3.151,8.748-7.582,11.116-12.786c-1.396,2.457-3.434,4.503-5.875,5.92
	c-0.303,0.175-0.613,0.34-0.927,0.497c-1.85,0.915-3.902,1.479-6.072,1.604c-0.308,0.018-0.615,0.032-0.928,0.032
	c-3.851,0-7.378-1.384-10.128-3.673c-1.78-1.481-3.236-3.337-4.235-5.453c-0.686,1.966-1.749,3.755-3.099,5.285
	c-2.574,2.914-6.198,4.875-10.274,5.291c-0.531,0.054-1.07,0.085-1.615,0.085c-0.156,0-0.308-0.006-0.462-0.011
	c-0.872-0.025-1.728-0.119-2.56-0.281c-0.674-0.13-1.334-0.303-1.975-0.517"/>
<path fill="#FFFFFF" d="M157.781,262.052c6.4,0,11.607-4.978,11.607-11.098s-5.208-11.098-11.607-11.098
	c-6.399,0-11.608,4.978-11.608,11.098S151.381,262.052,157.781,262.052z M157.781,240.514c6.021,0,10.919,4.684,10.919,10.44
	l-0.001,0.05c0.001,0.069-0.001,0.108-0.003,0.146l-0.002,0.045c-0.002,0.134-0.007,0.267-0.015,0.4
	c-0.106,1.938-0.768,3.802-1.913,5.387l-0.233,0.323l0.002,0.002l-0.02,0.023l-0.359,0.498l-0.029-0.046
	c-2.062,2.337-5.057,3.674-8.244,3.674c-0.323,0-0.651-0.014-0.979-0.043l-0.428-0.037l-0.002,0.003l-0.033-0.006l-0.604-0.052
	l0.029-0.046c-0.869-0.158-1.721-0.423-2.537-0.788c-3.925-1.672-6.466-5.416-6.466-9.533
	C146.862,245.198,151.759,240.514,157.781,240.514z"/>
<path fill="#4D4D4E" d="M157.781,238.556c-7.149,0-12.967,5.562-12.967,12.398s5.818,12.398,12.967,12.398
	c7.15,0,12.968-5.562,12.968-12.398S164.931,238.556,157.781,238.556z M157.781,262.052c-6.399,0-11.608-4.978-11.608-11.098
	s5.208-11.098,11.608-11.098c6.4,0,11.607,4.978,11.607,11.098S164.181,262.052,157.781,262.052z"/>
<g>
	<path fill="#FFFFFF" d="M166.318,246.865l-9.993,0.015l2.916-4.947c-0.257-0.038-0.516-0.067-0.779-0.085l-5.086,8.328
		l-3.011-4.978c-0.197,0.231-0.38,0.472-0.554,0.721l5.115,8.456l-6.003-0.001c0.111,0.265,0.237,0.523,0.373,0.776l10.157-0.014
		l-2.94,4.876c0.173,0.022,0.349,0.041,0.537,0.054l0.329,0.023l5.055-8.283l2.878,4.776c0.1-0.124,0.202-0.252,0.305-0.395
		l0.183-0.25l-5.014-8.324l5.891,0.015C166.568,247.368,166.448,247.114,166.318,246.865z"/>
	<path fill="#4D4D4E" d="M157.781,240.514c-6.021,0-10.919,4.684-10.919,10.44c0,4.117,2.542,7.86,6.466,9.533
		c0.816,0.365,1.668,0.63,2.537,0.788l-0.029,0.046l0.604,0.052l0.033,0.006l0.002-0.003l0.428,0.037
		c0.328,0.029,0.656,0.043,0.979,0.043c3.187,0,6.182-1.337,8.244-3.674l0.029,0.046l0.359-0.498l0.02-0.023l-0.002-0.002
		l0.233-0.323c1.145-1.585,1.806-3.45,1.913-5.387c0.008-0.133,0.013-0.266,0.015-0.4l0.002-0.045
		c0.002-0.039,0.004-0.078,0.003-0.146l0.001-0.05C168.7,245.198,163.802,240.514,157.781,240.514z M160.785,247.614l5.014,8.324
		l-0.183,0.25c-0.104,0.143-0.206,0.271-0.305,0.395l-2.878-4.776l-5.055,8.283l-0.329-0.023c-0.188-0.014-0.364-0.032-0.537-0.054
		l2.94-4.876l-10.157,0.014c-0.136-0.253-0.262-0.511-0.373-0.776l6.003,0.001l-5.115-8.456c0.174-0.249,0.357-0.49,0.554-0.721
		l3.011,4.978l5.086-8.328c0.263,0.018,0.522,0.047,0.779,0.085l-2.916,4.947l9.993-0.015c0.13,0.249,0.25,0.503,0.358,0.764
		L160.785,247.614z"/>
</g>
<path fill="#4D4D4E" d="M128.559,245.957c-5.392,0-9.779,3.436-9.779,7.658c0,1.234,0.365,2.414,1.085,3.506l0.287,0.436
	l0.125-0.501c0.845-3.388,4.696-5.847,9.154-5.847c3.521,0,6.706,1.514,8.311,3.949l0.287,0.437l0.125-0.501
	c0.122-0.488,0.184-0.986,0.184-1.479C138.338,249.393,133.951,245.957,128.559,245.957z"/>
<path fill="#FFFFFF" d="M143.288,274.573c0.068-0.001,0.137-0.001,0.205-0.004c3.904-3.347,3.661-6.992,3.512-7.911
	c-0.028-0.18-0.124-0.411-0.27-0.669c-0.604-1.073-2.077-2.635-3.348-3.186c-1.226,0.532-2.64,2.005-3.279,3.071
	c-0.183,0.305-0.306,0.578-0.339,0.784C139.623,267.578,139.378,271.225,143.288,274.573z"/>
<text transform="matrix(1 0 0 1 182.4512 272.6763)" fill="#4D4D4E" font-family="'koliko-Light'" font-size="66.3836">VIKENIMA</text>
<text transform="matrix(1 0 0 1 217.6338 611.2217)" fill="#2BBCBB" font-family="'koliko-Bold'" font-size="82.016">VIKENIMA</text>
<path fill="#2BBCBB" d="M60.66,575.943c0.002-0.005,0.005-0.012,0.008-0.016"/>
<path fill="#FFFFFF" d="M163.182,614.859c14.831,0,26.898-12.066,26.898-26.898s-12.067-26.898-26.898-26.898
	s-26.903,12.066-26.903,26.898S148.352,614.859,163.182,614.859z M163.182,562.655c13.954,0,25.304,11.353,25.304,25.306
	l-0.005,0.121c0.005,0.166,0,0.262-0.005,0.355l-0.005,0.109c-0.005,0.324-0.021,0.647-0.036,0.969
	c-0.246,4.697-1.779,9.217-4.435,13.059l-0.538,0.781l0.005,0.006l-0.046,0.055l-0.835,1.207l-0.067-0.111
	c-4.778,5.664-11.719,8.904-19.101,8.904c-0.749,0-1.512-0.033-2.271-0.104l-0.99-0.09l-0.005,0.008l-0.077-0.016l-1.399-0.127
	l0.067-0.111c-2.015-0.383-3.988-1.025-5.88-1.91c-9.094-4.053-14.984-13.127-14.984-23.105
	C137.878,574.008,149.228,562.655,163.182,562.655z"/>
<path fill="#FFFFFF" d="M129.595,645.209c0.158-0.004,0.316-0.004,0.476-0.01c9.048-8.113,8.484-16.947,8.141-19.176
	c-0.066-0.438-0.287-0.996-0.625-1.621c-1.399-2.602-4.813-6.389-7.759-7.723c-2.841,1.289-6.117,4.861-7.599,7.445
	c-0.423,0.738-0.707,1.398-0.784,1.898C121.102,628.254,120.536,637.094,129.595,645.209z"/>
<g>
	<path fill="#2BBCBB" d="M61.931,574.443c0.002-0.005,0.005-0.012,0.008-0.016"/>
	<path fill="#2BBCBB" d="M161.515,608.412c0.4,0.053,0.805,0.098,1.241,0.131l0.764,0.059l11.713-20.076l6.67,11.576
		c0.23-0.299,0.467-0.611,0.707-0.957l0.42-0.605l-11.616-20.176l13.651,0.035c-0.25-0.631-0.527-1.246-0.83-1.85l-23.156,0.035
		l6.757-11.99c-0.595-0.092-1.194-0.163-1.805-0.207l-11.785,20.186l-6.978-12.066c-0.456,0.561-0.881,1.144-1.286,1.747
		l11.853,20.497l-13.908-0.002c0.256,0.641,0.549,1.268,0.861,1.881l23.54-0.035L161.515,608.412z"/>
	<g>
		<path fill="#2BBCBB" d="M61.938,574.428c5.681-13.59,18.651-23.114,33.712-23.114c14.692,0,27.395,9.063,33.284,22.122
			c5.011-15.024,18.688-25.838,34.733-25.838c13.815,0,25.874,8.012,32.159,19.826c0.455,0.858,0.881,1.738,1.275,2.637
			c2.148,4.882,3.354,10.307,3.354,16.023c0,1.584-0.104,3.146-0.283,4.68c0.939-4.635,1.441-9.428,1.441-14.334
			c0-39.682-32.287-71.963-71.965-71.963c-39.681,0-71.963,32.281-71.963,71.963c0,4.421,0.422,8.741,1.189,12.945
			c0.055-5.301,1.142-10.346,3.055-14.932"/>
		<path fill="#2BBCBB" d="M83.654,626.172c-3.052-1.107-5.924-2.621-8.554-4.486c-1.226-0.867-2.404-1.805-3.519-2.818
			c0.724,0.988,1.478,1.955,2.25,2.904c2.839,3.488,5.995,6.705,9.426,9.609c0.966,0.816,1.952,1.609,2.958,2.375
			c9.601,7.295,21.079,12.232,33.572,13.951c2.914,0.404,5.882,0.631,8.896,0.67c0.322,0.004,0.642,0.014,0.965,0.014
			c14.903,0,28.755-4.559,40.248-12.35c11.268-7.637,20.27-18.377,25.76-30.99c-3.234,5.957-7.957,10.914-13.615,14.35
			c-0.703,0.426-1.42,0.824-2.148,1.203c-4.291,2.217-9.042,3.584-14.072,3.891c-0.713,0.043-1.426,0.076-2.153,0.076
			c-8.92,0-17.097-3.355-23.468-8.904c-4.127-3.59-7.5-8.088-9.816-13.217c-1.589,4.764-4.052,9.102-7.182,12.809
			c-5.964,7.063-14.363,11.818-23.808,12.824c-1.231,0.131-2.479,0.205-3.743,0.205c-0.36,0-0.714-0.016-1.07-0.025
			c-2.021-0.063-4.004-0.289-5.931-0.682c-1.563-0.316-3.091-0.734-4.577-1.252"/>
		<path fill="#2BBCBB" d="M164.453,556.409c-16.568,0-30.051,13.481-30.051,30.052s13.482,30.051,30.051,30.051
			c16.568,0,30.05-13.48,30.05-30.051S181.021,556.409,164.453,556.409z M164.453,613.359c-14.83,0-26.902-12.066-26.902-26.898
			s12.072-26.898,26.902-26.898c14.832,0,26.898,12.066,26.898,26.898S179.284,613.359,164.453,613.359z"/>
		<g>
			<path fill="#2BBCBB" d="M189.485,576.611l-28.406-0.027l9.371-16.555c-0.595-0.092-1.194-0.164-1.805-0.207l-14.399,24.75
				l-9.703-16.967c-0.456,0.561-0.881,1.145-1.286,1.748l14.578,25.396l-19.129-0.008c0.256,0.641,0.549,1.268,0.861,1.881
				l28.761-0.029l-9.508,16.288c0.4,0.053,0.805,0.098,1.241,0.131l0.764,0.059l14.408-24.546l9.256,16.185
				c0.23-0.299,0.465-0.611,0.707-0.957l0.42-0.605l-14.202-24.784l18.901,0.098C190.065,577.83,189.788,577.215,189.485,576.611z"
				/>
			<g>
				<path fill="none" d="M147.269,572.506c-0.456,0.561-0.881,1.144-1.286,1.747l11.853,20.497l-13.908-0.002
					c0.256,0.641,0.549,1.268,0.861,1.881l23.54-0.035l-6.813,11.818c0.4,0.053,0.805,0.098,1.241,0.131l0.764,0.059l11.713-20.076
					l6.67,11.576c0.23-0.299,0.467-0.611,0.707-0.957l0.42-0.605l-11.616-20.176l13.651,0.035c-0.25-0.631-0.527-1.246-0.83-1.85
					l-23.156,0.035l8.444-14.918c-0.586-0.119-1.182-0.211-1.782-0.29l-13.495,23.196L147.269,572.506z"/>
				<path fill="#2BBCBB" d="M170.451,560.029c-0.595-0.092-1.194-0.164-1.805-0.207l-0.904,1.554
					c0.601,0.079,1.196,0.171,1.782,0.29L170.451,560.029z"/>
			</g>
		</g>
		<path fill="#2BBCBB" d="M96.732,574.348c-12.496,0-22.661,8.328-22.661,18.563c0,2.99,0.846,5.848,2.514,8.498l0.666,1.055
			l0.29-1.215c1.959-8.211,10.882-14.17,21.214-14.17c8.161,0,15.541,3.668,19.26,9.572l0.665,1.057l0.29-1.215
			c0.283-1.184,0.425-2.389,0.425-3.582C119.395,582.676,109.229,574.348,96.732,574.348z"/>
	</g>
	<path fill="#FFFFFF" d="M130.568,643.709c0.157-0.004,0.316-0.004,0.475-0.01c9.049-8.113,8.484-16.947,8.141-19.176
		c-0.066-0.438-0.287-0.996-0.625-1.621c-1.399-2.602-4.813-6.389-7.759-7.723c-2.843,1.289-6.118,4.861-7.6,7.445
		c-0.423,0.738-0.707,1.398-0.784,1.898C122.073,626.754,121.506,635.594,130.568,643.709z"/>
</g>
<g>
	<path fill="#4D4D4E" d="M56.598,388.776c0.002-0.005,0.005-0.012,0.008-0.016"/>
	<path fill="#4D4D4E" d="M156.183,422.745c0.4,0.053,0.805,0.098,1.24,0.131l0.764,0.059l11.713-20.076l6.67,11.576
		c0.23-0.299,0.467-0.611,0.707-0.957l0.42-0.605l-11.615-20.176l13.65,0.035c-0.25-0.631-0.527-1.246-0.83-1.85l-23.154,0.035
		l6.756-11.99c-0.594-0.092-1.193-0.163-1.805-0.207l-11.785,20.186l-6.977-12.066c-0.457,0.561-0.881,1.144-1.287,1.747
		l11.854,20.497l-13.908-0.002c0.256,0.641,0.549,1.268,0.861,1.881l23.539-0.035L156.183,422.745z"/>
	<g>
		<path fill="#4D4D4E" d="M56.605,388.761c5.681-13.59,18.651-23.114,33.712-23.114c14.692,0,27.395,9.063,33.284,22.122
			c5.011-15.024,18.688-25.838,34.733-25.838c13.814,0,25.873,8.012,32.158,19.826c0.455,0.858,0.881,1.738,1.275,2.637
			c2.148,4.882,3.354,10.307,3.354,16.023c0,1.584-0.104,3.146-0.283,4.68c0.939-4.635,1.441-9.428,1.441-14.334
			c0-39.682-32.285-71.963-71.965-71.963c-39.681,0-71.963,32.281-71.963,71.963c0,4.421,0.422,8.741,1.189,12.945
			c0.055-5.301,1.142-10.346,3.055-14.932"/>
		<path fill="#4D4D4E" d="M78.321,440.505c-3.052-1.107-5.924-2.621-8.554-4.486c-1.226-0.867-2.404-1.805-3.519-2.818
			c0.724,0.988,1.478,1.955,2.25,2.904c2.839,3.488,5.995,6.705,9.426,9.609c0.966,0.816,1.952,1.609,2.958,2.375
			c9.601,7.295,21.079,12.232,33.572,13.951c2.914,0.404,5.882,0.631,8.897,0.67c0.321,0.004,0.642,0.014,0.965,0.014
			c14.904,0,28.756-4.559,40.248-12.35c11.268-7.637,20.27-18.377,25.76-30.99c-3.234,5.957-7.957,10.914-13.615,14.35
			c-0.703,0.426-1.42,0.824-2.148,1.203c-4.291,2.217-9.041,3.584-14.07,3.891c-0.713,0.043-1.426,0.076-2.154,0.076
			c-8.92,0-17.096-3.355-23.468-8.904c-4.127-3.59-7.5-8.088-9.816-13.217c-1.589,4.764-4.052,9.102-7.182,12.809
			c-5.964,7.063-14.363,11.818-23.808,12.824c-1.231,0.131-2.479,0.205-3.743,0.205c-0.36,0-0.714-0.016-1.07-0.025
			c-2.021-0.063-4.004-0.289-5.931-0.682c-1.563-0.316-3.091-0.734-4.577-1.252"/>
		<path fill="#4D4D4E" d="M159.121,370.742c-16.568,0-30.052,13.481-30.052,30.052s13.483,30.051,30.052,30.051
			c16.566,0,30.049-13.48,30.049-30.051S175.687,370.742,159.121,370.742z M159.121,427.692c-14.83,0-26.903-12.066-26.903-26.898
			s12.073-26.898,26.903-26.898s26.896,12.066,26.896,26.898S173.951,427.692,159.121,427.692z"/>
		<g>
			<path fill="#4D4D4E" d="M184.152,390.944l-28.404-0.027l9.371-16.555c-0.596-0.092-1.195-0.164-1.805-0.207l-14.4,24.75
				l-9.703-16.967c-0.455,0.561-0.881,1.145-1.285,1.748l14.578,25.396l-19.13-0.008c0.256,0.641,0.549,1.268,0.861,1.881
				l28.761-0.029l-9.508,16.288c0.4,0.053,0.805,0.098,1.242,0.131l0.764,0.059l14.406-24.546l9.256,16.185
				c0.23-0.299,0.465-0.611,0.707-0.957l0.42-0.605l-14.201-24.784l18.9,0.098C184.732,392.163,184.455,391.548,184.152,390.944z"/>
			<g>
				<path fill="#4D4D4E" d="M141.937,386.839c-0.457,0.561-0.881,1.144-1.287,1.747l11.854,20.497l-13.908-0.002
					c0.256,0.641,0.549,1.268,0.861,1.881l23.539-0.035l-6.813,11.818c0.4,0.053,0.805,0.098,1.24,0.131l0.764,0.059l11.713-20.076
					l6.67,11.576c0.23-0.299,0.467-0.611,0.707-0.957l0.42-0.605l-11.615-20.176l13.65,0.035c-0.25-0.631-0.527-1.246-0.83-1.85
					l-23.154,0.035l8.443-14.918c-0.586-0.119-1.182-0.211-1.781-0.29l-13.496,23.196L141.937,386.839z"/>
				<path fill="#4D4D4E" d="M165.119,374.362c-0.596-0.092-1.195-0.164-1.805-0.207l-0.904,1.554c0.6,0.079,1.195,0.171,1.781,0.29
					L165.119,374.362z"/>
			</g>
		</g>
		<path fill="#4D4D4E" d="M91.399,388.681c-12.496,0-22.661,8.328-22.661,18.563c0,2.99,0.846,5.848,2.514,8.498l0.666,1.055
			l0.29-1.215c1.959-8.211,10.882-14.17,21.214-14.17c8.161,0,15.541,3.668,19.26,9.572l0.665,1.057l0.29-1.215
			c0.283-1.184,0.425-2.389,0.425-3.582C114.062,397.009,103.896,388.681,91.399,388.681z"/>
	</g>
	<path fill="#FFFFFF" d="M125.235,458.042c0.157-0.004,0.316-0.004,0.475-0.01c9.049-8.113,8.484-16.947,8.141-19.176
		c-0.066-0.438-0.287-0.996-0.625-1.621c-1.399-2.602-4.813-6.389-7.759-7.723c-2.843,1.289-6.118,4.861-7.6,7.445
		c-0.423,0.738-0.707,1.398-0.784,1.898C116.74,441.087,116.173,449.927,125.235,458.042z"/>
</g>
<g>
	<path d="M-113.084,377.334c0.001-0.002,0.002-0.004,0.003-0.006"/>
	<path d="M-113.081,377.328c2.165-5.178,7.106-8.806,12.844-8.806c5.598,0,10.438,3.453,12.681,8.428
		c1.91-5.724,7.119-9.844,13.234-9.844c5.263,0,9.856,3.052,12.251,7.553c0.174,0.327,0.335,0.663,0.486,1.005
		c0.818,1.86,1.278,3.927,1.278,6.104c0,0.604-0.039,1.199-0.107,1.783c0.358-1.766,0.548-3.592,0.548-5.461
		c0-15.118-12.3-27.417-27.417-27.417c-15.118,0-27.417,12.299-27.417,27.417c0,1.685,0.161,3.331,0.453,4.932
		c0.021-2.02,0.435-3.941,1.164-5.688"/>
	<path fill="none" d="M-75.143,390.276c0.152,0.02,0.308,0.037,0.474,0.05l0.291,0.022l4.462-7.649l2.542,4.411
		c0.088-0.114,0.178-0.233,0.27-0.365l0.161-0.23l-4.427-7.687l5.201,0.014c-0.095-0.241-0.2-0.475-0.316-0.705l-8.823,0.014
		l2.574-4.568c-0.226-0.035-0.455-0.062-0.687-0.079l-4.491,7.69l-2.659-4.597c-0.174,0.213-0.336,0.436-0.489,0.666l4.516,7.809
		l-5.3-0.001c0.098,0.245,0.209,0.483,0.33,0.717l8.968-0.013L-75.143,390.276z"/>
	<path d="M-59.518,407.018c-0.306-0.348-0.625-0.685-0.945-1.017c-0.105-0.108-0.21-0.215-0.316-0.322
		c-0.226-0.226-0.456-0.448-0.688-0.667c-0.122-0.115-0.242-0.231-0.366-0.344c-0.296-0.271-0.599-0.535-0.905-0.793
		c-0.202-0.17-0.409-0.335-0.615-0.5c-0.125-0.1-0.25-0.2-0.377-0.298c-0.24-0.186-0.481-0.37-0.726-0.548
		c-0.029-0.021-0.058-0.041-0.086-0.062c-0.579-0.418-1.17-0.817-1.777-1.197c-0.002-0.001-0.005-0.003-0.009-0.006
		c-0.182,0.121-0.369,0.236-0.553,0.354c1.427,1.504,2.728,3.179,3.877,5.019c4.561,7.299,6.243,16.255,4.735,25.22
		c-1.36,8.09-5.267,15.474-11.001,20.792c-1.083,1.005-2.22,1.925-3.398,2.755c10.574-4.872,18.456-14.421,20.024-25.512
		C-51.46,421.51-53.9,413.387-59.518,407.018z"/>
	<path d="M-85.979,407.928c0.253,0.402,0.492,0.813,0.722,1.229c0.047,0.084,0.094,0.169,0.14,0.255
		c0.229,0.425,0.451,0.855,0.655,1.294c3.216,6.914,2.999,14.716-0.612,21.971c-4.194,8.428-12.446,14.876-22.189,17.75
		c3.71,3.771,8.423,6.395,13.795,7.297c1.348,0.228,2.721,0.342,4.081,0.342c13.607,0,25.796-11.467,28.354-26.674
		c1.394-8.289-0.151-16.553-4.349-23.271c-0.229-0.367-0.468-0.724-0.709-1.076c-0.079-0.115-0.159-0.228-0.239-0.341
		c-0.171-0.241-0.344-0.478-0.521-0.711c-0.092-0.123-0.183-0.247-0.277-0.368c-0.225-0.289-0.455-0.572-0.689-0.85
		c-0.154-0.183-0.312-0.36-0.47-0.538c-0.096-0.108-0.191-0.215-0.289-0.322c-0.184-0.201-0.369-0.399-0.557-0.593
		c-0.022-0.023-0.045-0.044-0.066-0.067c-0.058-0.059-0.117-0.115-0.175-0.173c-4.854,2.61-10.502,4.332-16.606,4.844
		C-85.979,407.927-85.979,407.927-85.979,407.928z"/>
	<path d="M-88.401,411.08c-0.258-0.633-0.54-1.25-0.844-1.85c-5.801-0.483-11.125-2.667-15.474-6.048
		c-0.375-0.292-0.742-0.594-1.103-0.904c-1.59-1.365-3.036-2.894-4.302-4.567c-0.744,0.173-1.472,0.402-2.179,0.685
		c-0.001,0-0.002,0.001-0.003,0.001c-0.343,0.137-0.68,0.288-1.012,0.45c-0.017,0.008-0.033,0.016-0.05,0.024
		c-0.333,0.164-0.662,0.341-0.984,0.53c-0.014,0.008-0.027,0.017-0.041,0.025c-0.291,0.171-0.575,0.355-0.856,0.547
		c-0.051,0.035-0.102,0.069-0.152,0.104c-0.292,0.204-0.579,0.418-0.859,0.644c-0.021,0.017-0.041,0.035-0.062,0.052
		c-0.251,0.205-0.496,0.42-0.737,0.642c-0.065,0.061-0.131,0.122-0.196,0.184c-0.257,0.245-0.51,0.496-0.754,0.76
		c-3.39,3.673-5.014,8.717-4.572,14.201c0.697,8.661-3.978,16.477-7.291,19.618c-1.012,0.96-2.029,2.005-2.41,2.852
		c-0.125,0.279-0.182,0.537-0.146,0.764c0.278,1.725,5.369,4.33,10.312,6.652c2.834,1.331,5.861,2.029,9,2.095
		c0.159,0.003,0.318,0.013,0.478,0.013c0.38,0,0.759-0.013,1.136-0.031c0.537-0.025,1.071-0.067,1.603-0.13
		c8.718-1.026,16.647-6.882,20.695-15.501c2.991-6.369,3.525-13.42,1.503-19.855c-0.105-0.336-0.218-0.667-0.336-0.996
		c-0.053-0.147-0.112-0.292-0.168-0.438c-0.052-0.135-0.102-0.271-0.156-0.406C-88.372,411.156-88.386,411.117-88.401,411.08z"/>
	<path d="M-104.648,397.102c-0.054-0.019-0.106-0.04-0.16-0.06"/>
	<path d="M-104.808,397.042c-1.163-0.422-2.257-0.999-3.259-1.709c-0.467-0.331-0.916-0.688-1.341-1.074
		c0.276,0.377,0.563,0.745,0.857,1.107c1.082,1.329,2.284,2.554,3.591,3.661c0.368,0.311,0.744,0.613,1.127,0.905
		c3.658,2.779,8.031,4.66,12.791,5.315c1.11,0.153,2.241,0.24,3.39,0.255c0.123,0.001,0.245,0.005,0.368,0.005
		c5.677,0,10.955-1.737,15.334-4.705c4.293-2.91,7.724-7.002,9.815-11.807c-1.233,2.269-3.031,4.158-5.188,5.467
		c-0.267,0.162-0.541,0.314-0.818,0.458c-1.633,0.845-3.445,1.366-5.36,1.482c-0.271,0.017-0.544,0.029-0.82,0.029
		c-3.399,0-6.514-1.278-8.943-3.392c-1.571-1.368-2.857-3.082-3.739-5.036c-0.605,1.815-1.544,3.468-2.736,4.88
		c-2.272,2.691-5.472,4.502-9.071,4.886c-0.469,0.05-0.945,0.078-1.426,0.078c-0.137,0-0.272-0.006-0.408-0.01
		c-0.77-0.023-1.525-0.11-2.26-0.259c-0.595-0.121-1.178-0.28-1.744-0.477"/>
	<path fill="#FFFFFF" d="M-74.024,392.161c5.651,0,10.248-4.597,10.248-10.248c0-5.651-4.597-10.249-10.248-10.249
		s-10.249,4.597-10.249,10.249C-84.273,387.564-79.675,392.161-74.024,392.161z M-74.024,372.271c5.316,0,9.641,4.325,9.641,9.642
		l-0.001,0.046c0.001,0.063,0,0.1-0.003,0.135l-0.001,0.042c-0.002,0.124-0.007,0.247-0.014,0.369
		c-0.094,1.789-0.678,3.511-1.688,4.975l-0.206,0.298l0.001,0.002l-0.017,0.021l-0.317,0.459l-0.025-0.042
		c-1.82,2.158-4.465,3.393-7.279,3.393c-0.284,0-0.575-0.013-0.864-0.04l-0.378-0.034l-0.001,0.002l-0.03-0.005l-0.533-0.048
		l0.025-0.042c-0.767-0.146-1.519-0.391-2.239-0.728c-3.465-1.544-5.71-5.001-5.71-8.803
		C-83.665,376.597-79.34,372.271-74.024,372.271z"/>
	<path d="M-74.024,370.463c-6.313,0-11.45,5.136-11.45,11.45c0,6.313,5.137,11.449,11.45,11.449s11.449-5.136,11.449-11.449
		C-62.575,375.6-67.711,370.463-74.024,370.463z M-74.024,392.161c-5.651,0-10.249-4.597-10.249-10.248
		c0-5.651,4.598-10.249,10.249-10.249s10.248,4.597,10.248,10.249C-63.776,387.564-68.373,392.161-74.024,392.161z"/>
	<g>
		<path fill="none" d="M-66.487,378.136l-8.823,0.014l2.574-4.568c-0.226-0.035-0.455-0.062-0.687-0.079l-4.491,7.69l-2.659-4.597
			c-0.174,0.213-0.336,0.436-0.489,0.666l4.516,7.809l-5.3-0.001c0.098,0.245,0.209,0.483,0.33,0.717l8.968-0.013l-2.596,4.503
			c0.152,0.02,0.308,0.037,0.474,0.05l0.291,0.022l4.462-7.649l2.542,4.411c0.088-0.114,0.178-0.233,0.27-0.365l0.161-0.23
			l-4.427-7.687l5.201,0.014C-66.266,378.601-66.371,378.366-66.487,378.136z"/>
		<path d="M-74.024,372.271c-5.316,0-9.641,4.325-9.641,9.642c0,3.801,2.245,7.258,5.71,8.803c0.72,0.337,1.473,0.582,2.239,0.728
			l-0.025,0.042l0.533,0.048l0.03,0.005l0.001-0.002l0.378,0.034c0.289,0.026,0.58,0.04,0.864,0.04c2.814,0,5.458-1.235,7.279-3.393
			l0.025,0.042l0.317-0.459l0.017-0.021l-0.001-0.002l0.206-0.298c1.011-1.463,1.594-3.186,1.688-4.975
			c0.007-0.123,0.012-0.246,0.014-0.369l0.001-0.042c0.002-0.036,0.004-0.072,0.003-0.135l0.001-0.046
			C-64.383,376.597-68.708,372.271-74.024,372.271z M-71.372,378.828l4.427,7.687l-0.161,0.23c-0.092,0.132-0.181,0.25-0.27,0.365
			l-2.542-4.411l-4.462,7.649l-0.291-0.022c-0.166-0.013-0.322-0.03-0.474-0.05l2.596-4.503l-8.968,0.013
			c-0.121-0.233-0.231-0.472-0.33-0.717l5.3,0.001l-4.516-7.809c0.153-0.23,0.315-0.452,0.489-0.666l2.659,4.597l4.491-7.69
			c0.232,0.017,0.46,0.043,0.687,0.079l-2.574,4.568l8.823-0.014c0.116,0.23,0.221,0.464,0.316,0.705L-71.372,378.828z"/>
	</g>
	<path d="M-99.825,377.298c-4.761,0-8.634,3.173-8.634,7.072c0,1.139,0.322,2.229,0.958,3.238l0.253,0.402l0.11-0.463
		c0.747-3.128,4.146-5.399,8.083-5.399c3.109,0,5.921,1.397,7.338,3.647l0.253,0.403l0.11-0.463
		c0.108-0.451,0.162-0.911,0.162-1.365C-91.19,380.471-95.063,377.298-99.825,377.298z"/>
	<path fill="#FFFFFF" d="M-86.731,403.807c0.033-0.029,0.06-0.058,0.093-0.087c-0.061,0.002-0.121,0.002-0.181,0.003
		C-86.789,403.751-86.763,403.779-86.731,403.807z"/>
	<path fill="#FFFFFF" d="M-86.82,403.724c0.06-0.001,0.121-0.001,0.181-0.003c3.447-3.091,3.232-6.457,3.102-7.306
		c-0.025-0.167-0.11-0.38-0.239-0.618c-0.533-0.991-1.833-2.434-2.955-2.942c-1.083,0.491-2.331,1.852-2.895,2.836
		c-0.161,0.281-0.27,0.533-0.299,0.724C-90.056,397.264-90.271,400.632-86.82,403.724z"/>
</g>
<g>
	<path fill="#4D4D4E" d="M59.683,83.079c0.001-0.001,0.002-0.004,0.003-0.006"/>
	<path fill="#4D4D4E" d="M97.452,95.962c0.152,0.02,0.305,0.037,0.471,0.05l0.289,0.022l4.442-7.614l2.529,4.391
		c0.087-0.114,0.177-0.232,0.268-0.364l0.16-0.229l-4.405-7.652l5.177,0.013c-0.095-0.239-0.2-0.472-0.315-0.701l-8.781,0.013
		l2.562-4.547c-0.225-0.035-0.453-0.062-0.685-0.079l-4.469,7.655l-2.646-4.576c-0.174,0.212-0.334,0.434-0.488,0.662l4.495,7.774
		l-5.275-0.001c0.098,0.244,0.209,0.481,0.327,0.713l8.927-0.013L97.452,95.962z"/>
	<g>
		<path fill="#4D4D4E" d="M59.686,83.072c2.155-5.154,7.073-8.765,12.786-8.765c5.572,0,10.39,3.437,12.623,8.39
			c1.9-5.698,7.088-9.8,13.174-9.8c5.239,0,9.812,3.039,12.196,7.52c0.172,0.326,0.334,0.659,0.483,1
			c0.815,1.852,1.272,3.909,1.272,6.077c0,0.601-0.04,1.193-0.107,1.774c0.356-1.757,0.546-3.575,0.546-5.436
			c0-15.049-12.244-27.292-27.293-27.292S58.073,68.783,58.073,83.832c0,1.677,0.16,3.315,0.451,4.91
			c0.021-2.01,0.433-3.923,1.159-5.663"/>
		<path fill="#4D4D4E" d="M67.921,102.697c-1.158-0.42-2.247-0.994-3.244-1.702c-0.465-0.329-0.912-0.684-1.335-1.068
			c0.275,0.375,0.561,0.741,0.854,1.101c1.077,1.324,2.273,2.543,3.575,3.645c0.367,0.31,0.741,0.611,1.122,0.901
			c3.642,2.767,7.994,4.64,12.732,5.291c1.105,0.154,2.231,0.24,3.374,0.254c0.123,0.001,0.244,0.005,0.366,0.005
			c5.653,0,10.906-1.729,15.265-4.684c4.272-2.896,7.687-6.969,9.77-11.753c-1.227,2.259-3.018,4.139-5.164,5.442
			c-0.266,0.161-0.538,0.312-0.814,0.456c-1.627,0.841-3.429,1.359-5.337,1.476c-0.27,0.016-0.54,0.028-0.816,0.028
			c-3.383,0-6.484-1.272-8.9-3.377c-1.565-1.361-2.845-3.067-3.724-5.012c-0.603,1.807-1.536,3.452-2.724,4.857
			c-2.262,2.679-5.447,4.482-9.029,4.864c-0.467,0.05-0.94,0.079-1.42,0.079c-0.137,0-0.271-0.006-0.406-0.01
			c-0.767-0.024-1.519-0.11-2.25-0.259c-0.593-0.12-1.172-0.278-1.736-0.475"/>
		<path fill="#4D4D4E" d="M98.565,76.239c-6.284,0-11.397,5.113-11.397,11.397c0,6.284,5.114,11.397,11.397,11.397
			c6.283,0,11.396-5.113,11.396-11.397C109.962,81.352,104.848,76.239,98.565,76.239z M98.565,97.838
			c-5.625,0-10.203-4.576-10.203-10.201c0-5.625,4.579-10.202,10.203-10.202s10.201,4.576,10.201,10.202
			C108.766,93.262,104.19,97.838,98.565,97.838z"/>
		<g>
			<path fill="#4D4D4E" d="M108.059,83.901l-10.772-0.01l3.554-6.278c-0.226-0.035-0.453-0.062-0.685-0.079l-5.461,9.386
				l-3.681-6.435c-0.172,0.212-0.333,0.434-0.487,0.663l5.529,9.632L88.8,90.777c0.097,0.243,0.208,0.481,0.327,0.713l10.908-0.011
				l-3.605,6.177c0.152,0.021,0.305,0.037,0.471,0.05l0.289,0.022l5.464-9.31l3.51,6.138c0.087-0.113,0.176-0.232,0.269-0.363
				l0.159-0.229l-5.386-9.4l7.168,0.037C108.279,84.363,108.174,84.13,108.059,83.901z"/>
			<g>
				<path fill="#4D4D4E" d="M92.049,82.344c-0.174,0.212-0.334,0.434-0.488,0.662l4.495,7.774l-5.275-0.001
					c0.098,0.244,0.209,0.481,0.327,0.713l8.927-0.013l-2.583,4.482c0.152,0.02,0.305,0.037,0.471,0.05l0.289,0.022l4.442-7.614
					l2.529,4.391c0.087-0.114,0.177-0.232,0.268-0.364l0.16-0.229l-4.405-7.652l5.177,0.013c-0.095-0.239-0.2-0.472-0.315-0.701
					l-8.781,0.013l3.202-5.658c-0.222-0.045-0.448-0.081-0.676-0.11l-5.118,8.797L92.049,82.344z"/>
				<path fill="#4D4D4E" d="M100.84,77.612c-0.226-0.035-0.453-0.062-0.685-0.079l-0.343,0.589c0.228,0.029,0.454,0.065,0.676,0.11
					L100.84,77.612z"/>
			</g>
		</g>
		<path fill="#4D4D4E" d="M72.882,83.042c-4.739,0-8.595,3.158-8.595,7.04c0,1.134,0.321,2.218,0.954,3.223l0.252,0.4l0.11-0.461
			c0.743-3.114,4.126-5.374,8.045-5.374c3.095,0,5.894,1.391,7.304,3.63l0.253,0.401l0.109-0.461
			c0.107-0.449,0.161-0.906,0.161-1.358C81.476,86.201,77.621,83.042,72.882,83.042z"/>
	</g>
	<path fill="#FFFFFF" d="M85.714,109.348c0.06-0.001,0.12-0.001,0.18-0.003c3.432-3.077,3.218-6.428,3.088-7.272
		c-0.025-0.167-0.109-0.378-0.237-0.615c-0.531-0.986-1.825-2.422-2.942-2.928c-1.078,0.489-2.321,1.843-2.882,2.823
		c-0.161,0.28-0.269,0.531-0.297,0.72C82.492,102.917,82.277,106.271,85.714,109.348z"/>
</g>
<text transform="matrix(1 0 0 1 215.1787 423.2754)" fill="#4D4D4E" font-family="'koliko-Regular'" font-size="75.5227">VIKENIMA</text>
<text transform="matrix(1 0 0 1 262.021 727.9805)" fill="#2BBCBB" font-family="'koliko-Regular'" font-size="52.8469">VIKENIMA</text>
<g>
	<path fill="#2BBCBB" d="M161.694,704.283c0.002-0.004,0.003-0.008,0.005-0.011"/>
	<path fill="#2BBCBB" d="M225.861,726.17c0.258,0.035,0.518,0.063,0.8,0.085l0.492,0.038l7.548-12.937l4.297,7.459
		c0.148-0.192,0.301-0.394,0.456-0.616l0.271-0.391l-7.485-13l8.796,0.022c-0.161-0.406-0.34-0.803-0.535-1.192l-14.92,0.023
		l4.354-7.727c-0.383-0.059-0.77-0.104-1.163-0.133l-7.594,13.006l-4.496-7.774c-0.294,0.361-0.567,0.737-0.829,1.126l7.637,13.207
		l-8.962-0.002c0.165,0.414,0.354,0.817,0.555,1.213l15.168-0.023L225.861,726.17z"/>
	<g>
		<path fill="#2BBCBB" d="M161.699,704.272c3.661-8.757,12.018-14.894,21.722-14.894c9.467,0,17.652,5.84,21.447,14.254
			c3.229-9.681,12.042-16.648,22.38-16.648c8.902,0,16.672,5.162,20.722,12.775c0.293,0.553,0.567,1.12,0.822,1.699
			c1.384,3.145,2.161,6.641,2.161,10.324c0,1.021-0.067,2.027-0.183,3.016c0.605-2.986,0.929-6.074,0.929-9.236
			c0-25.568-20.804-46.369-46.371-46.369c-25.568,0-46.369,20.801-46.369,46.369c0,2.849,0.272,5.633,0.767,8.342
			c0.035-3.416,0.735-6.666,1.968-9.621"/>
		<path fill="#2BBCBB" d="M175.691,737.613c-1.966-0.713-3.817-1.688-5.512-2.891c-0.79-0.559-1.549-1.162-2.268-1.815
			c0.467,0.637,0.952,1.26,1.45,1.871c1.829,2.248,3.863,4.321,6.074,6.192c0.623,0.525,1.258,1.037,1.906,1.529
			c6.186,4.701,13.582,7.883,21.632,8.99c1.878,0.26,3.791,0.406,5.732,0.432c0.208,0.002,0.414,0.008,0.622,0.008
			c9.603,0,18.528-2.936,25.934-7.957c7.261-4.92,13.061-11.841,16.599-19.969c-2.084,3.839-5.127,7.033-8.773,9.246
			c-0.453,0.275-0.915,0.531-1.384,0.775c-2.765,1.429-5.826,2.311-9.067,2.508c-0.459,0.027-0.919,0.049-1.388,0.049
			c-5.748,0-11.016-2.162-15.122-5.738c-2.659-2.313-4.833-5.211-6.325-8.516c-1.023,3.069-2.611,5.865-4.627,8.254
			c-3.843,4.551-9.255,7.615-15.341,8.263c-0.793,0.085-1.598,0.132-2.412,0.132c-0.232,0-0.46-0.01-0.689-0.016
			c-1.302-0.041-2.58-0.187-3.822-0.439c-1.007-0.204-1.992-0.474-2.949-0.807"/>
		<path fill="#2BBCBB" d="M227.754,692.662c-10.676,0-19.363,8.688-19.363,19.364s8.688,19.362,19.363,19.362
			c10.675,0,19.363-8.686,19.363-19.362S238.429,692.662,227.754,692.662z M227.754,729.357c-9.556,0-17.334-7.774-17.334-17.331
			c0-9.558,7.779-17.332,17.334-17.332c9.557,0,17.332,7.774,17.332,17.332C245.085,721.583,237.311,729.357,227.754,729.357z"/>
		<g>
			<path fill="#2BBCBB" d="M243.884,705.68l-18.303-0.018l6.038-10.667c-0.383-0.06-0.77-0.106-1.163-0.134l-9.278,15.947
				l-6.252-10.932c-0.294,0.361-0.567,0.737-0.829,1.126l9.394,16.364l-12.326-0.005c0.165,0.413,0.354,0.817,0.555,1.212
				l18.532-0.02l-6.126,10.496c0.258,0.033,0.519,0.063,0.8,0.084l0.492,0.037l9.284-15.815l5.964,10.429
				c0.148-0.193,0.299-0.395,0.456-0.617l0.271-0.39l-9.151-15.97l12.179,0.063C244.257,706.465,244.079,706.068,243.884,705.68z"/>
			<g>
				<path fill="none" d="M216.682,703.034c-0.294,0.361-0.567,0.737-0.829,1.126l7.637,13.207l-8.962-0.002
					c0.165,0.414,0.354,0.817,0.555,1.213l15.168-0.023l-4.39,7.615c0.258,0.035,0.518,0.063,0.8,0.085l0.492,0.038l7.548-12.937
					l4.297,7.459c0.148-0.192,0.301-0.394,0.456-0.616l0.271-0.391l-7.485-13l8.796,0.022c-0.161-0.406-0.34-0.803-0.535-1.192
					l-14.92,0.023l5.441-9.612c-0.377-0.077-0.761-0.136-1.148-0.187l-8.695,14.945L216.682,703.034z"/>
				<path fill="#2BBCBB" d="M231.619,694.995c-0.383-0.06-0.77-0.106-1.163-0.134l-0.583,1.002c0.387,0.051,0.771,0.109,1.148,0.187
					L231.619,694.995z"/>
			</g>
		</g>
		<path fill="#2BBCBB" d="M184.119,704.221c-8.052,0-14.602,5.367-14.602,11.961c0,1.927,0.545,3.768,1.62,5.476l0.429,0.68
			l0.187-0.782c1.262-5.291,7.011-9.131,13.669-9.131c5.258,0,10.013,2.363,12.41,6.168l0.429,0.681l0.187-0.782
			c0.183-0.764,0.274-1.539,0.274-2.309C198.721,709.588,192.17,704.221,184.119,704.221z"/>
	</g>
	<path fill="#FFFFFF" d="M205.92,748.914c0.101-0.002,0.204-0.002,0.306-0.006c5.831-5.229,5.467-10.92,5.246-12.356
		c-0.043-0.282-0.185-0.642-0.403-1.044c-0.902-1.677-3.102-4.117-5-4.977c-1.832,0.83-3.942,3.133-4.897,4.797
		c-0.272,0.477-0.456,0.901-0.505,1.224C200.446,737.988,200.082,743.686,205.92,748.914z"/>
</g>
</svg>
