<?xml version="1.0" standalone="no"?>
<!DOCTYPE svg PUBLIC "-//W3C//DTD SVG 20010904//EN"
 "http://www.w3.org/TR/2001/REC-SVG-20010904/DTD/svg10.dtd">
<svg version="1.0" xmlns="http://www.w3.org/2000/svg"
 width="600.000000pt" height="600.000000pt" viewBox="0 0 600.000000 600.000000"
 preserveAspectRatio="xMidYMid meet">
<metadata>
Created by potrace 1.11, written by Peter Selinger 2001-2013
</metadata>
<g transform="translate(0.000000,600.000000) scale(0.100000,-0.100000)"
fill="#000000" stroke="none">
<path d="M2780 5993 c-278 -21 -606 -93 -853 -189 -139 -54 -399 -184 -520
-261 -481 -305 -850 -715 -1097 -1218 -123 -250 -189 -440 -244 -695 -72 -336
-85 -752 -32 -1080 l12 -75 8 90 c58 684 511 1253 1136 1428 192 54 451 68
640 33 463 -84 865 -382 1090 -809 40 -74 50 -88 56 -72 88 244 227 460 411
635 208 200 448 328 734 392 138 31 435 33 569 5 198 -42 392 -124 558 -234
175 -116 390 -356 505 -563 127 -230 208 -580 195 -845 l-5 -100 18 105 c42
248 47 549 13 829 -100 844 -571 1618 -1279 2104 -439 300 -907 468 -1445 517
-106 9 -363 11 -470 3z"/>
<path d="M4324 3830 c-559 -58 -1013 -480 -1108 -1030 -20 -119 -21 -321 -1
-436 63 -356 289 -679 607 -865 347 -203 794 -222 1154 -50 146 70 246 140
359 255 179 180 288 380 341 628 23 105 26 379 5 483 -101 510 -502 909 -1004
999 -109 20 -253 26 -353 16z m275 -139 c12 -7 6 -24 -31 -88 -58 -101 -540
-927 -543 -931 -2 -3 -372 637 -381 661 -20 52 244 239 431 306 112 40 232 60
375 60 74 0 141 -3 149 -8z m225 -55 c213 -76 393 -211 531 -398 48 -64 140
-237 128 -239 -15 -3 -1158 3 -1161 6 -3 2 272 496 341 613 19 31 38 52 49 52
9 0 60 -15 112 -34z m-1151 -532 c36 -66 162 -287 280 -491 l215 -373 -393 0
-392 0 -16 58 c-40 142 -48 325 -22 474 27 156 104 341 192 461 l36 48 17 -29
c10 -16 47 -83 83 -148z m1845 -201 c19 -35 43 -168 49 -262 9 -159 -23 -339
-90 -497 -32 -76 -132 -244 -145 -244 -4 0 -29 39 -56 88 -27 48 -156 274
-287 503 -132 229 -239 419 -239 423 0 3 171 6 380 6 351 0 380 -1 388 -17z
m-527 -575 c51 -90 135 -235 186 -322 51 -88 93 -165 93 -172 0 -6 -29 -39
-65 -72 -172 -161 -402 -265 -647 -292 -85 -10 -258 -6 -258 5 0 2 27 47 59
102 33 54 167 281 298 505 131 224 239 407 240 408 1 0 43 -73 94 -162z m-391
-173 c0 -2 -86 -153 -192 -335 l-191 -331 -31 7 c-301 66 -593 299 -740 592
l-36 72 595 0 c327 0 595 -2 595 -5z"/>
<path d="M1448 3074 c-388 -60 -697 -324 -754 -644 -26 -142 -6 -277 59 -405
60 -119 56 -119 91 -13 38 112 87 191 170 274 301 301 839 358 1226 130 97
-57 189 -141 251 -229 30 -43 51 -64 54 -56 15 43 25 114 25 185 1 484 -539
849 -1122 758z"/>
<path d="M3011 1870 c-22 -74 -140 -294 -208 -389 -226 -314 -560 -531 -943
-612 -139 -30 -400 -32 -535 -5 -231 45 -452 144 -635 282 l-112 85 63 -83
c81 -105 377 -404 489 -492 313 -248 720 -453 1092 -551 832 -219 1707 -79
2412 386 186 122 320 231 482 393 229 229 400 462 548 747 81 155 99 202 40
105 -166 -275 -443 -512 -739 -631 -203 -82 -374 -110 -610 -102 -217 8 -383
49 -578 141 -281 134 -572 421 -708 699 -18 37 -36 67 -40 67 -3 0 -11 -18
-18 -40z m93 -514 c114 -73 276 -269 292 -353 4 -20 4 -86 1 -147 -10 -220
-97 -408 -281 -604 -27 -28 -57 -52 -67 -52 -41 0 -197 186 -259 310 -64 128
-92 229 -97 361 -5 110 -4 120 21 174 30 67 67 117 150 204 49 51 166 141 183
141 2 0 28 -15 57 -34z"/>
</g>
</svg>
